<?xml version="1.0" encoding="UTF-8"?>
<!DOCTYPE svg PUBLIC "-//W3C//DTD SVG 1.1//EN" "http://www.w3.org/Graphics/SVG/1.1/DTD/svg11.dtd">
<!-- Creator: CorelDRAW 2019 -->
<svg xmlns="http://www.w3.org/2000/svg" xml:space="preserve" width="84.6666mm" height="77.9588mm" version="1.1" style="shape-rendering:geometricPrecision; text-rendering:geometricPrecision; image-rendering:optimizeQuality; fill-rule:evenodd; clip-rule:evenodd"
viewBox="0 0 306.51 282.22"
 xmlns:xlink="http://www.w3.org/1999/xlink"
 xmlns:xodm="http://www.corel.com/coreldraw/odm/2003">
 <defs>
  <style type="text/css">
   <![CDATA[
    .fil2 {fill:#0D1417}
    .fil3 {fill:#FEFEFE;fill-rule:nonzero}
    .fil0 {fill:url(#id0)}
    .fil1 {fill:url(#id1)}
   ]]>
  </style>
  <radialGradient id="id0" gradientUnits="userSpaceOnUse" gradientTransform="matrix(0.779828 0.937267 -0.937267 0.779828 181 -112)" cx="156.32" cy="156.09" r="82.76" fx="156.32" fy="156.09">
   <stop offset="0" style="stop-opacity:1; stop-color:#FEFEFE"/>
   <stop offset="1" style="stop-opacity:1; stop-color:#0B1215"/>
  </radialGradient>
  <radialGradient id="id1" gradientUnits="userSpaceOnUse" gradientTransform="matrix(0.767645 0.8903 -0.923024 0.727517 152 -96)" cx="147.12" cy="128.06" r="85.82" fx="147.12" fy="128.06">
   <stop offset="0" style="stop-opacity:1; stop-color:#FEFEFE"/>
   <stop offset="0.168627" style="stop-opacity:1; stop-color:#848889"/>
   <stop offset="1" style="stop-opacity:1; stop-color:#0B1215"/>
  </radialGradient>
 </defs>
 <g id="Слой_x0020_1">
  <metadata id="CorelCorpID_0Corel-Layer"/>
  <g id="_846778136">
   <path class="fil0" d="M10.76 160.35c18.15,-12.66 36.42,-25.36 54.74,-38.14 18.39,-12.83 36.83,-25.72 55.39,-38.65 15.01,-10.47 39.92,-10.87 55.37,-0.77 19.44,12.7 39.04,25.48 58.67,38.28 19.73,12.86 39.54,25.8 59.47,38.81 15.91,10.38 16.16,27.47 0.53,37.96 -19.33,12.97 -38.55,25.87 -57.69,38.7 -19.05,12.78 -38.06,25.53 -56.94,38.2 -15.17,10.18 -40.07,9.93 -55.35,-0.44 -19.15,-12.99 -38.21,-25.99 -57.17,-38.87 -18.89,-12.83 -37.77,-25.6 -56.5,-38.31 -14.81,-10.05 -15.1,-26.61 -0.52,-36.78z"/>
   <path class="fil1" d="M10.76 126.11c18.15,-12.66 36.42,-25.36 54.74,-38.14 18.39,-12.83 36.83,-25.72 55.39,-38.65 15.01,-10.47 39.92,-10.87 55.37,-0.77 19.44,12.7 39.04,25.48 58.67,38.28 19.73,12.86 39.54,25.8 59.47,38.81 15.91,10.38 16.16,27.47 0.53,37.96 -19.33,12.97 -38.55,25.87 -57.69,38.7 -19.05,12.78 -38.06,25.53 -56.94,38.2 -15.17,10.18 -40.07,9.93 -55.35,-0.44 -19.15,-12.99 -38.21,-25.99 -57.17,-38.87 -18.89,-12.83 -37.77,-25.6 -56.5,-38.31 -14.81,-10.05 -15.1,-26.61 -0.52,-36.77z"/>
   <path class="fil2" d="M10.76 84.9c18.15,-12.66 36.42,-25.36 54.74,-38.14 18.39,-12.83 36.83,-25.72 55.39,-38.65 15.01,-10.47 39.92,-10.87 55.37,-0.77 19.44,12.7 39.04,25.48 58.67,38.28 19.73,12.86 39.54,25.8 59.47,38.81 15.91,10.38 16.16,27.47 0.53,37.96 -19.33,12.97 -38.55,25.87 -57.69,38.7 -19.05,12.78 -38.06,25.53 -56.94,38.2 -15.17,10.18 -40.07,9.93 -55.35,-0.44 -19.15,-12.99 -38.21,-25.99 -57.17,-38.87 -18.89,-12.83 -37.77,-25.6 -56.5,-38.31 -14.81,-10.05 -15.1,-26.61 -0.52,-36.77z"/>
   <path class="fil3" d="M167.66 148.99c-14.35,-9.84 -28.73,-19.7 -43.12,-29.56 -14.41,-9.88 -28.86,-19.78 -43.31,-29.71 5.13,-3.46 10.3,-6.94 15.48,-10.43 5.2,-3.5 10.44,-7.03 15.69,-10.57 6.43,-4.33 12.5,-7.22 18.22,-8.63 5.73,-1.42 11.57,-1.57 17.53,-0.52 5.97,1.05 10.98,2.98 15.06,5.79 3.76,2.59 6.3,5.71 7.63,9.32 1.33,3.61 1,7.43 -1,11.47 6.79,-2.34 13.5,-3.12 20.1,-2.37 6.61,0.76 12.49,2.89 17.63,6.43 4.14,2.86 7.1,6.08 8.89,9.62 1.8,3.56 2.38,6.8 1.72,9.74 -0.65,2.93 -2.41,5.95 -5.27,9.03 -2.87,3.1 -7.07,6.37 -12.6,9.85 -5.5,3.46 -10.98,6.9 -16.43,10.33 -5.43,3.41 -10.84,6.81 -16.21,10.2zm-38.95 -41.53c3.02,-1.98 6.06,-3.96 9.09,-5.95 3.04,-1.99 6.1,-3.99 9.16,-5.99 5,-3.27 8.25,-5.87 9.76,-7.75 2.01,-2.51 2.73,-4.95 2.14,-7.31 -0.59,-2.37 -2.42,-4.62 -5.51,-6.75 -2.93,-2.02 -6.19,-3.33 -9.77,-3.96 -3.59,-0.63 -7.07,-0.4 -10.4,0.71 -3.33,1.11 -8.03,3.7 -14.08,7.75 -2.81,1.87 -5.6,3.74 -8.39,5.61 -2.78,1.86 -5.56,3.71 -8.33,5.57 4.39,3.02 8.79,6.03 13.18,9.05 4.39,3.01 8.78,6.02 13.16,9.03zm40.06 27.5c3.53,-2.24 7.07,-4.49 10.62,-6.73 3.56,-2.26 7.13,-4.52 10.72,-6.79 3.7,-2.35 6.15,-4.11 7.39,-5.25 2.16,-2 3.61,-3.95 4.27,-5.86 0.67,-1.91 0.5,-3.96 -0.49,-6.17 -0.99,-2.22 -2.89,-4.29 -5.69,-6.22 -3.28,-2.26 -6.96,-3.68 -11.07,-4.28 -4.1,-0.59 -8.08,-0.28 -12,0.94 -3.88,1.21 -8.56,3.6 -14,7.13 -3.29,2.14 -6.58,4.27 -9.85,6.39 -3.26,2.12 -6.52,4.23 -9.76,6.34 4.99,3.42 9.98,6.85 14.95,10.26 4.97,3.41 9.96,6.84 14.92,10.24z"/>
  </g>
 </g>
</svg>
