<?xml version="1.0" encoding="UTF-8"?>
<!DOCTYPE svg PUBLIC "-//W3C//DTD SVG 1.1//EN" "http://www.w3.org/Graphics/SVG/1.1/DTD/svg11.dtd">
<!-- Creator: CorelDRAW 2019 -->
<svg xmlns="http://www.w3.org/2000/svg" xml:space="preserve" width="84.6666mm" height="77.9588mm" version="1.1" style="shape-rendering:geometricPrecision; text-rendering:geometricPrecision; image-rendering:optimizeQuality; fill-rule:evenodd; clip-rule:evenodd"
viewBox="0 0 357.29 328.98"
 xmlns:xlink="http://www.w3.org/1999/xlink"
 xmlns:xodm="http://www.corel.com/coreldraw/odm/2003">
 <defs>
  <style type="text/css">
   <![CDATA[
    .fil2 {fill:#6F3BBA}
    .fil3 {fill:snow;fill-rule:nonzero}
    .fil0 {fill:url(#id0)}
    .fil1 {fill:url(#id1)}
   ]]>
  </style>
  <radialGradient id="id0" gradientUnits="userSpaceOnUse" gradientTransform="matrix(0.712095 -0 -0 0.718152 55 55)" cx="189.36" cy="196.41" r="164.35" fx="189.36" fy="196.41">
   <stop offset="0" style="stop-opacity:1; stop-color:#1F1B20"/>
   <stop offset="1" style="stop-opacity:1; stop-color:#38146B"/>
  </radialGradient>
  <radialGradient id="id1" gradientUnits="userSpaceOnUse" gradientTransform="matrix(0.693356 0.804142 -0.797361 0.699255 194 -94)" cx="182.22" cy="173.38" r="110.76" fx="182.22" fy="173.38">
   <stop offset="0" style="stop-opacity:1; stop-color:#1F1B20"/>
   <stop offset="0.470588" style="stop-opacity:1; stop-color:#351C55"/>
   <stop offset="1" style="stop-opacity:1; stop-color:#4A1C89"/>
  </radialGradient>
 </defs>
 <g id="Слой_x0020_1">
  <metadata id="CorelCorpID_0Corel-Layer"/>
  <g id="_1160222688">
   <path class="fil0" d="M12.55 186.91c21.16,-14.76 42.45,-29.56 63.81,-44.46 21.43,-14.96 42.94,-29.98 64.57,-45.06 17.5,-12.2 46.53,-12.67 64.55,-0.9 22.66,14.81 45.5,29.7 68.39,44.63 23,15 46.09,30.08 69.32,45.24 18.55,12.11 18.84,32.03 0.62,44.25 -22.53,15.12 -44.94,30.15 -67.25,45.12 -22.21,14.89 -44.37,29.76 -66.38,44.53 -17.68,11.86 -46.71,11.57 -64.53,-0.51 -22.32,-15.15 -44.54,-30.3 -66.64,-45.31 -22.02,-14.96 -44.03,-29.84 -65.86,-44.65 -17.27,-11.72 -17.6,-31.01 -0.61,-42.87z"/>
   <path class="fil1" d="M12.55 147.01c21.16,-14.76 42.45,-29.56 63.81,-44.46 21.43,-14.96 42.94,-29.98 64.57,-45.06 17.5,-12.2 46.53,-12.67 64.55,-0.9 22.66,14.81 45.5,29.7 68.39,44.63 23,15 46.09,30.08 69.32,45.24 18.55,12.11 18.84,32.03 0.62,44.25 -22.53,15.11 -44.94,30.15 -67.25,45.12 -22.21,14.89 -44.37,29.76 -66.38,44.53 -17.68,11.86 -46.71,11.57 -64.53,-0.51 -22.32,-15.15 -44.54,-30.29 -66.64,-45.31 -22.02,-14.96 -44.03,-29.84 -65.86,-44.65 -17.27,-11.72 -17.6,-31.01 -0.61,-42.87z"/>
   <path class="fil2" d="M12.55 98.97c21.16,-14.76 42.45,-29.56 63.81,-44.46 21.43,-14.96 42.94,-29.98 64.57,-45.06 17.5,-12.2 46.53,-12.67 64.55,-0.9 22.66,14.81 45.5,29.7 68.39,44.63 23,15 46.09,30.08 69.32,45.24 18.55,12.11 18.84,32.03 0.62,44.25 -22.53,15.12 -44.94,30.15 -67.25,45.12 -22.21,14.89 -44.37,29.76 -66.38,44.53 -17.68,11.86 -46.71,11.58 -64.53,-0.51 -22.32,-15.15 -44.54,-30.29 -66.64,-45.31 -22.02,-14.96 -44.03,-29.84 -65.86,-44.65 -17.27,-11.72 -17.6,-31.01 -0.61,-42.87z"/>
   <path class="fil3" d="M195.44 173.68c-16.73,-11.47 -33.49,-22.96 -50.27,-34.46 -16.8,-11.52 -33.64,-23.06 -50.49,-34.63 5.98,-4.03 12,-8.09 18.05,-12.16 6.06,-4.08 12.17,-8.19 18.29,-12.32 7.49,-5.05 14.57,-8.41 21.24,-10.06 6.68,-1.65 13.49,-1.83 20.44,-0.61 6.96,1.23 12.8,3.48 17.55,6.75 4.39,3.02 7.34,6.65 8.89,10.86 1.55,4.2 1.17,8.66 -1.17,13.38 7.92,-2.73 15.74,-3.64 23.43,-2.76 7.71,0.88 14.56,3.37 20.55,7.5 4.83,3.33 8.28,7.08 10.37,11.21 2.1,4.15 2.77,7.93 2.01,11.35 -0.76,3.41 -2.81,6.93 -6.14,10.53 -3.35,3.61 -8.24,7.43 -14.69,11.48 -6.41,4.03 -12.79,8.05 -19.15,12.04 -6.32,3.98 -12.63,7.94 -18.9,11.89zm-45.41 -48.41c3.53,-2.31 7.06,-4.62 10.6,-6.94 3.55,-2.32 7.11,-4.65 10.67,-6.99 5.83,-3.81 9.62,-6.84 11.37,-9.03 2.34,-2.92 3.18,-5.77 2.5,-8.52 -0.68,-2.76 -2.82,-5.39 -6.43,-7.87 -3.42,-2.35 -7.21,-3.88 -11.39,-4.61 -4.18,-0.73 -8.24,-0.47 -12.13,0.83 -3.88,1.3 -9.36,4.32 -16.41,9.03 -3.27,2.19 -6.53,4.36 -9.78,6.54 -3.24,2.17 -6.48,4.33 -9.71,6.49 5.12,3.52 10.24,7.03 15.36,10.54 5.12,3.51 10.23,7.02 15.34,10.53zm46.7 32.05c4.11,-2.61 8.24,-5.23 12.38,-7.85 4.15,-2.63 8.31,-5.27 12.49,-7.92 4.31,-2.73 7.17,-4.79 8.61,-6.12 2.52,-2.33 4.2,-4.6 4.98,-6.83 0.78,-2.23 0.58,-4.62 -0.57,-7.2 -1.15,-2.59 -3.37,-5 -6.64,-7.25 -3.83,-2.64 -8.11,-4.29 -12.91,-4.99 -4.77,-0.69 -9.42,-0.33 -13.99,1.1 -4.52,1.41 -9.98,4.2 -16.32,8.31 -3.84,2.49 -7.67,4.98 -11.48,7.45 -3.8,2.47 -7.6,4.93 -11.38,7.39 5.81,3.99 11.63,7.98 17.43,11.96 5.79,3.98 11.61,7.97 17.39,11.94z"/>
  </g>
 </g>
</svg>
