<?xml version="1.0" encoding="UTF-8"?>
<!DOCTYPE svg PUBLIC "-//W3C//DTD SVG 1.1//EN" "http://www.w3.org/Graphics/SVG/1.1/DTD/svg11.dtd">
<!-- Creator: CorelDRAW 2019 -->
<svg xmlns="http://www.w3.org/2000/svg" xml:space="preserve" width="63.0287mm" height="83.9742mm" version="1.1" style="shape-rendering:geometricPrecision; text-rendering:geometricPrecision; image-rendering:optimizeQuality; fill-rule:evenodd; clip-rule:evenodd"
viewBox="0 0 171.45 228.42"
 xmlns:xlink="http://www.w3.org/1999/xlink"
 xmlns:xodm="http://www.corel.com/coreldraw/odm/2003">
 <defs>
  <style type="text/css">
   <![CDATA[
    .fil0 {fill:#0B1215}
   ]]>
  </style>
 </defs>
 <g id="Слой_x0020_1">
  <metadata id="CorelCorpID_0Corel-Layer"/>
  <path class="fil0" d="M65.53 20.22c-0.8,0.54 -1.06,1.44 -1.38,2.37l-2.68 9.18c-1.01,4.01 -1.96,8.95 -2.39,13.38 -0.39,3.99 -2.48,27.16 -0.93,30.17l0.5 10.19c0.16,6.68 1.23,13.17 1.98,19.66 0.34,2.99 1.25,6.9 1.25,9.74 0.41,0.86 0.95,5.15 1.16,6.37 0.38,2.21 0.83,4.44 1.16,6.33 0.76,4.28 1.55,8.45 2.54,12.42 0.5,2.16 1.31,4.99 1.62,7.09 0.28,1.72 0.75,3.31 1.13,4.79 0.4,1.55 0.57,3.03 1.3,4.36 0.06,2.26 4.19,16.21 4.2,16.21 0.03,0.07 0.1,0.21 0.13,0.27 0.03,0.06 0.08,0.18 0.13,0.27 0.11,1.32 0.67,3.13 1.07,4.45 0.49,1.62 0.87,3.18 1.31,4.62l2.88 8.53c0.05,2.24 1.13,3.92 1.62,5.94l7.29 0 4.05 -12.83c0.51,-1.22 0.9,-3.18 1.36,-4.69 0.52,-1.75 0.96,-3.46 1.39,-4.93 0.67,-2.3 2.51,-7.47 2.48,-9.72l3.04 -10.83c1.02,-3.91 1.9,-7.58 2.71,-11.5 0.82,-3.93 4.74,-20.74 4.23,-23.57 1.18,-1.24 2.04,-12.01 2.38,-14.35 0.23,-1.59 0.64,-3.28 0.64,-4.79l0.14 -1.26c0.18,-0.42 1.03,-8.78 1.08,-9.81 0.19,-3.72 0.19,-6.75 0.4,-10.59l0.41 -16.09c0.02,-2.52 -0.36,-3.4 -0.42,-5.47 -0.2,-7.19 -0.94,-13.84 -2.25,-20.19 -0.6,-2.89 -1.34,-6.44 -2.14,-8.91 -0.6,-1.85 -1.9,-6.92 -3.48,-8.19 -0.02,-1.7 -2.15,-4.72 -3.13,-6.2 -3.16,-4.79 -12.01,-13.44 -17.15,-12.49 -3.54,0.65 -9.97,5.23 -11.92,7.71 -0.8,1.02 -1.32,1.44 -2.2,2.58 -1.99,2.55 -4.89,6.67 -5.49,9.81zm-16.6 139.04c0.42,1.8 2.64,4.51 3.72,6.23 0.6,0.96 0.65,1.47 1.55,1.86 0.38,1.68 2.74,4.24 3.88,5.82 0.72,1 0.87,1.05 1.61,1.97l19.2 21.02 -18.21 -33.75c-0.84,-1.81 -1.39,-3.44 -2.44,-5.22 0,-1.15 0.11,-0.37 -0.4,-0.61l-4.84 -11.83c-0.12,-0.25 -0.28,-0.57 -0.39,-0.8l-0.43 -0.76c-0.56,-2.31 -1.6,-4.62 -2.38,-6.71 -0.76,-2.04 -1.62,-4.76 -2.48,-6.63 -1.72,-5.44 -3.58,-10.78 -5.26,-16.3l-2.43 -8.79c-0.04,-1.95 -0.82,-4.2 -1.19,-5.93 -0.41,-1.93 -0.69,-3.9 -1.24,-5.67 0,-3.01 -1.47,-8.98 -1.62,-13.53l-0.41 -14.98c0,-4.86 1.9,-16.56 3.29,-21.07 0.99,-3.2 1.69,-6.1 2.96,-9.3 1.26,-3.18 3.73,-7 3.88,-8.9 1.26,-0.66 0.42,-0.01 1.23,-1.44 0.43,-0.78 0.46,-0.91 1.03,-1.75 0.9,-1.33 1.47,-2.03 2.19,-3.39l0.56 -0.62c5.83,-6.77 9.88,-11.76 18.86,-16.24 1.28,-0.64 2.43,-0.88 3.24,-1.96 -2.1,0.17 -6.75,1.67 -8.55,2.3 -2.74,0.96 -5.24,2.14 -7.7,3.13 -5.03,2.01 -10.14,6.12 -13.74,8.3 -1.97,1.38 -3.43,2.97 -5.45,4.48 -3.56,2.67 -12.89,14.13 -13.53,17.24 -0.06,0.05 -0.15,0.07 -0.17,0.18 -0.02,0.11 -0.14,0.15 -0.17,0.19l-1.26 1.86c-3.08,5.21 -6.09,16.21 -6.09,22.26 -0.16,2.04 -0.39,2.02 -0.42,4.78 -0.02,2.48 0.32,3.59 0.42,5.51 0.19,3.9 0.38,7.69 1.22,10.93 1.18,5.23 1.92,10.1 3.41,15.19 0.74,2.54 1.48,4.66 2.21,6.88l2.04 6.24c0.29,0.59 0.2,0.42 0.43,0.7 0.37,1.68 1.23,3.6 1.91,5.29l2.4 4.99c-0.11,1.53 0.35,1.88 0.94,3.15 0.53,1.14 0.92,2.06 1.5,3.26 0.8,1.65 2.04,5.06 2.97,6.19 0.33,1.32 0.86,1.98 1.45,3.26 0.63,1.35 1,2.19 1.65,3.5 0.87,1.75 2.47,5.64 3.82,6.54 0.31,1.61 2.37,5.15 3.28,6.59 0.72,1.15 1.15,2.14 1.87,3.29 0.75,1.2 1.08,2.35 2.1,3.05zm55.45 16.58c-0.56,0.69 -0.94,1.53 -1.45,2.43l-7.13 12.71c-0.79,1.27 -2.85,4.05 -3.16,5.17 2.84,-1.84 4.89,-4.97 7.39,-7.36l7.19 -7.86c1.3,-1.67 2.54,-2.91 3.88,-4.56 7.17,-8.82 12.49,-18.24 18.11,-27.96l3.69 -7.05c0.74,-1.74 0.55,-0.45 0.23,-1.71 0.87,-0.53 0.91,-0.5 1.65,-1.95l3.03 -6.45c1.1,-2.57 3.21,-6.32 3.82,-8.85 1.01,-1.14 2.9,-6.8 3.52,-8.36 1.93,-4.8 4.73,-12.65 6.03,-17.7 0.72,-2.8 2.13,-6.73 2.19,-9.77 1.37,-1.68 2.45,-15.29 2.72,-17.25 0.77,-5.45 -0.57,-14.18 -1.46,-18.37 -0.98,-4.6 -3.41,-10.49 -5.57,-14.61 -1.39,-2.65 -6.64,-10.72 -8.64,-12.03 -0.32,-0.46 -0.47,-0.69 -0.84,-1.15 -0.05,-0.06 -0.13,-0.15 -0.18,-0.22l-4.74 -4.82c-8.27,-7.42 -24.88,-17.28 -35.52,-18.14l7.42 4.19c6.17,3.69 11.86,9.69 15.89,15.59l1.05 1.38c0.05,0.06 0.16,0.17 0.21,0.21 0.04,0.05 0.14,0.14 0.21,0.21 1.97,4.62 4.24,6.8 6.65,13.88 1.92,5.63 3.39,9.9 4.43,16.49 1.52,9.6 1.74,18.85 0.95,28.84 -0.22,2.82 -1.12,6.73 -1.18,9.45l-4.86 22.46c-0.06,0.07 -0.12,0.11 -0.13,0.23 -0.02,0.13 -0.1,0.19 -0.13,0.24l-2.82 8.99c-0.6,1.74 -1.08,2.95 -1.6,4.73 -0.55,1.89 -0.87,3.46 -1.79,4.8 -1.48,7.17 -14.99,35.83 -19.02,44.16zm53.43 -146.81c-0.38,-1.38 -1.3,-1.87 -2.19,-2.97 -0.88,-1.1 -1.58,-1.67 -2.56,-2.62 -1.74,-1.68 -3.64,-3.8 -5.53,-5.23 -3.29,-2.48 -9.64,-7.69 -13.59,-8.01l2.49 1.91c0.92,0.66 1.57,1.14 2.55,1.84 3.93,2.84 10.24,9.7 12.77,13.54 11.17,15.4 13.61,31.37 10.76,50.42 -0.41,2.74 -1.23,5.03 -1.45,7.61 -0.42,4.96 -4.84,17.36 -6.42,22.03 -1.59,4.67 -4.34,10.32 -6.36,15.02 -0.74,1.72 -1.85,3.45 -2.19,4.98l-6.65 11.95c-0.5,0.81 -0.69,1.09 -1.19,1.96 -0.72,1.26 -0.79,0.99 -1.07,2.52 -0.43,0.13 -0.01,-0.55 -1.14,1.22 -6.59,10.2 -9.4,14.66 -16.91,25.23l-20 25.34c1.58,-0.41 10.83,-10.14 11.8,-11.32l16.19 -18.83c2.96,-3.94 12.4,-16.33 14.51,-20.52l4.28 -6.78c0.94,-1.55 3.49,-5.76 3.76,-7.29 2.01,-1.32 9.81,-19.06 10.81,-21.35 2.91,-6.69 6.1,-17.2 7.86,-24.55 0.35,-1.44 0.57,-1.71 0.87,-3.47 2.8,-16.34 4.27,-26.11 -3.7,-41.65 -1.21,-2.36 -5.85,-9.78 -7.69,-10.98zm-131.96 109.06c0.22,0.92 5.72,10.35 7.46,11.77 0.39,1.43 2.85,4.71 3.98,6.17l16.58 20.8c4.87,5.08 9.87,11.13 15.38,16.48 1.02,0.99 1.63,2.06 3.14,2.45 -3.46,-5 -13.5,-16.34 -18.46,-23.3 -1.53,-2.15 -2.87,-3.76 -4.37,-5.96 -4.27,-6.27 -8.67,-12.13 -12.62,-18.99l-7.82 -12.95c-0.58,-1.95 -2.4,-4.96 -3.42,-6.93 -0.65,-1.26 -1.15,-2.13 -1.76,-3.4 -0.69,-1.45 -0.79,-2.2 -1.66,-3.4 -0.32,-1.7 -1.84,-4.45 -2.47,-5.94l-1.71 -4.23c-0.14,-0.35 -0.16,-0.46 -0.34,-0.84 -0.36,-0.77 -0.11,-0.33 -0.43,-0.76 -0.89,-3.69 -3.4,-9.61 -4.86,-15.3 -1.71,-6.7 -2.33,-11.43 -3.64,-16.87 0,-2.98 -0.82,-5.54 -0.82,-8.62 -0,-3.28 0.01,-6.57 0.01,-9.85 0.37,-4.15 1.86,-11.01 3.24,-14.19 3.13,-11.48 13.99,-25.33 24.35,-32.4 1.55,-1.06 1.68,-1.04 1.96,-2.03 -2.21,1.13 -4.14,1.95 -6.36,3.26 -6.73,3.96 -15.73,12.65 -20.29,19.18 -3.16,4.53 -9.25,15.11 -9.38,20.25 -0.3,0.53 -0.09,0.02 -0.38,0.87 -0.14,0.4 -0.28,0.99 -0.34,1.26 -0.23,1.03 -0.41,1.71 -0.49,2.61 0,2.02 -0.2,2.61 -0.36,4.04l1.17 12.87c0.36,4.22 2.92,14.86 4.13,19.16l6.4 17.27c0.57,2.58 2.88,6.53 4.04,9.1 0.66,1.47 0.53,2.14 1.88,3.13 -0.11,1.44 0.9,2.68 1.63,4.06l6.62 11.24zm46.95 90.23c2.96,0 24.84,0.32 25.7,-0.19 0.8,-0.48 1.07,-3.09 1.45,-4.87l3.61 -15.33 -35.62 0c1.63,6.76 3.23,13.62 4.86,20.4z"/>
 </g>
</svg>
