<?xml version="1.0" encoding="UTF-8"?>
<!DOCTYPE svg PUBLIC "-//W3C//DTD SVG 1.1//EN" "http://www.w3.org/Graphics/SVG/1.1/DTD/svg11.dtd">
<!-- Creator: CorelDRAW 2019 -->
<svg xmlns="http://www.w3.org/2000/svg" xml:space="preserve" width="63.0287mm" height="83.9742mm" version="1.1" style="shape-rendering:geometricPrecision; text-rendering:geometricPrecision; image-rendering:optimizeQuality; fill-rule:evenodd; clip-rule:evenodd"
viewBox="0 0 201.29 268.18"
 xmlns:xlink="http://www.w3.org/1999/xlink"
 xmlns:xodm="http://www.corel.com/coreldraw/odm/2003">
 <defs>
  <style type="text/css">
   <![CDATA[
    .fil0 {fill:url(#id0)}
   ]]>
  </style>
  <linearGradient id="id0" gradientUnits="userSpaceOnUse" x1="41.99" y1="248.41" x2="159.3" y2="19.77">
   <stop offset="0" style="stop-opacity:1; stop-color:#5B5B5B"/>
   <stop offset="0.164706" style="stop-opacity:1; stop-color:#2E9AAD"/>
   <stop offset="0.329412" style="stop-opacity:1; stop-color:#B14290"/>
   <stop offset="0.560784" style="stop-opacity:1; stop-color:#E5E00F"/>
   <stop offset="0.760784" style="stop-opacity:1; stop-color:#5DB13A"/>
   <stop offset="1" style="stop-opacity:1; stop-color:#00D9FF"/>
  </linearGradient>
 </defs>
 <g id="Слой_x0020_1">
  <metadata id="CorelCorpID_0Corel-Layer"/>
  <path class="fil0" d="M76.93 23.74c-0.94,0.63 -1.24,1.7 -1.62,2.78l-3.14 10.78c-1.19,4.7 -2.3,10.51 -2.8,15.71 -0.46,4.68 -2.91,31.89 -1.1,35.42l0.59 11.97c0.19,7.84 1.45,15.46 2.33,23.08 0.4,3.51 1.47,8.1 1.47,11.44 0.48,1.01 1.11,6.05 1.36,7.48 0.45,2.6 0.97,5.22 1.36,7.43 0.89,5.02 1.82,9.92 2.98,14.58 0.59,2.53 1.54,5.86 1.9,8.33 0.33,2.02 0.88,3.89 1.33,5.62 0.47,1.82 0.67,3.55 1.52,5.11 0.07,2.65 4.92,19.03 4.93,19.04 0.04,0.09 0.12,0.25 0.15,0.32 0.03,0.07 0.09,0.21 0.15,0.31 0.13,1.55 0.79,3.67 1.26,5.23 0.58,1.91 1.03,3.73 1.54,5.42l3.38 10.01c0.06,2.63 1.33,4.6 1.9,6.97l8.55 0 4.75 -15.06c0.6,-1.43 1.06,-3.74 1.59,-5.5 0.62,-2.05 1.13,-4.06 1.63,-5.79 0.79,-2.7 2.95,-8.77 2.91,-11.42l3.56 -12.71c1.19,-4.59 2.23,-8.9 3.18,-13.5 0.96,-4.62 5.57,-24.35 4.97,-27.68 1.38,-1.46 2.39,-14.1 2.79,-16.85 0.27,-1.87 0.75,-3.86 0.75,-5.62l0.16 -1.48c0.21,-0.49 1.2,-10.31 1.27,-11.51 0.22,-4.37 0.22,-7.93 0.47,-12.44l0.48 -18.89c0.02,-2.96 -0.43,-3.99 -0.5,-6.43 -0.24,-8.44 -1.1,-16.25 -2.64,-23.7 -0.7,-3.39 -1.58,-7.56 -2.51,-10.46 -0.7,-2.17 -2.23,-8.12 -4.08,-9.61 -0.03,-2 -2.53,-5.54 -3.67,-7.28 -3.71,-5.63 -14.1,-15.78 -20.14,-14.67 -4.16,0.77 -11.7,6.14 -13.99,9.05 -0.94,1.19 -1.54,1.69 -2.58,3.02 -2.33,3 -5.74,7.83 -6.44,11.51zm-19.48 163.24c0.5,2.11 3.1,5.3 4.36,7.31 0.71,1.13 0.76,1.73 1.81,2.18 0.45,1.97 3.22,4.97 4.56,6.84 0.84,1.18 1.03,1.23 1.9,2.31l22.54 24.68 -21.38 -39.62c-0.98,-2.12 -1.63,-4.04 -2.86,-6.13 0,-1.35 0.12,-0.43 -0.48,-0.72l-5.68 -13.89c-0.14,-0.29 -0.33,-0.67 -0.46,-0.94l-0.51 -0.9c-0.66,-2.72 -1.88,-5.42 -2.8,-7.87 -0.89,-2.39 -1.9,-5.59 -2.91,-7.78 -2.01,-6.39 -4.21,-12.66 -6.18,-19.14l-2.85 -10.32c-0.05,-2.29 -0.96,-4.93 -1.39,-6.96 -0.48,-2.27 -0.81,-4.58 -1.46,-6.66 0,-3.53 -1.73,-10.55 -1.9,-15.88l-0.48 -17.58c0,-5.7 2.23,-19.44 3.86,-24.74 1.16,-3.76 1.99,-7.17 3.47,-10.92 1.47,-3.74 4.38,-8.21 4.55,-10.45 1.48,-0.78 0.5,-0.01 1.44,-1.69 0.51,-0.91 0.54,-1.07 1.21,-2.06 1.06,-1.56 1.73,-2.38 2.57,-3.98l0.66 -0.73c6.84,-7.95 11.6,-13.81 22.15,-19.06 1.5,-0.75 2.85,-1.03 3.81,-2.3 -2.47,0.2 -7.92,1.96 -10.04,2.7 -3.22,1.13 -6.15,2.52 -9.04,3.67 -5.91,2.37 -11.91,7.19 -16.14,9.74 -2.32,1.62 -4.02,3.48 -6.4,5.26 -4.18,3.13 -15.14,16.59 -15.88,20.24 -0.08,0.06 -0.18,0.08 -0.2,0.21 -0.03,0.13 -0.17,0.17 -0.2,0.22l-1.48 2.18c-3.62,6.11 -7.14,19.03 -7.14,26.14 -0.19,2.4 -0.46,2.37 -0.49,5.61 -0.03,2.91 0.38,4.21 0.49,6.47 0.23,4.58 0.45,9.02 1.43,12.83 1.39,6.14 2.26,11.86 4,17.83 0.87,2.98 1.74,5.47 2.6,8.08l2.4 7.33c0.34,0.69 0.24,0.49 0.51,0.82 0.44,1.97 1.44,4.23 2.24,6.21l2.82 5.85c-0.13,1.8 0.41,2.21 1.11,3.7 0.62,1.33 1.08,2.42 1.76,3.83 0.93,1.94 2.39,5.95 3.49,7.27 0.39,1.54 1.01,2.33 1.7,3.82 0.73,1.58 1.18,2.57 1.94,4.11 1.02,2.06 2.9,6.62 4.48,7.67 0.36,1.89 2.78,6.04 3.85,7.74 0.85,1.35 1.35,2.51 2.19,3.86 0.88,1.41 1.27,2.76 2.47,3.58zm65.11 19.46c-0.65,0.81 -1.1,1.79 -1.7,2.85l-8.37 14.92c-0.93,1.49 -3.35,4.75 -3.71,6.07 3.33,-2.16 5.75,-5.83 8.67,-8.64l8.44 -9.23c1.53,-1.96 2.99,-3.42 4.56,-5.35 8.42,-10.36 14.66,-21.41 21.26,-32.83l4.33 -8.27c0.87,-2.04 0.64,-0.53 0.27,-2.01 1.02,-0.62 1.07,-0.59 1.94,-2.29l3.56 -7.58c1.3,-3.01 3.76,-7.42 4.48,-10.39 1.19,-1.33 3.4,-7.99 4.14,-9.81 2.27,-5.64 5.56,-14.85 7.08,-20.78 0.85,-3.29 2.5,-7.9 2.57,-11.47 1.61,-1.98 2.87,-17.96 3.2,-20.25 0.9,-6.4 -0.67,-16.65 -1.72,-21.57 -1.15,-5.4 -4.01,-12.32 -6.54,-17.15 -1.63,-3.11 -7.8,-12.59 -10.15,-14.12 -0.37,-0.54 -0.55,-0.81 -0.99,-1.35 -0.06,-0.07 -0.15,-0.18 -0.21,-0.25l-5.57 -5.66c-9.71,-8.71 -29.2,-20.29 -41.71,-21.3l8.71 4.91c7.24,4.33 13.93,11.38 18.65,18.3l1.23 1.62c0.06,0.07 0.19,0.2 0.24,0.25 0.05,0.05 0.16,0.17 0.25,0.25 2.31,5.42 4.97,7.98 7.81,16.29 2.25,6.61 3.98,11.63 5.21,19.37 1.78,11.27 2.04,22.13 1.12,33.86 -0.26,3.31 -1.32,7.9 -1.39,11.09l-5.7 26.37c-0.07,0.08 -0.14,0.13 -0.16,0.27 -0.02,0.15 -0.12,0.22 -0.15,0.28l-3.32 10.55c-0.71,2.04 -1.27,3.46 -1.88,5.55 -0.65,2.22 -1.02,4.06 -2.1,5.64 -1.74,8.41 -17.6,42.06 -22.34,51.84zm62.73 -172.36c-0.45,-1.62 -1.53,-2.19 -2.58,-3.49 -1.04,-1.29 -1.86,-1.96 -3.01,-3.07 -2.04,-1.97 -4.27,-4.46 -6.5,-6.14 -3.87,-2.91 -11.31,-9.03 -15.96,-9.41l2.92 2.24c1.08,0.78 1.84,1.33 2.99,2.16 4.62,3.33 12.02,11.39 15,15.9 13.11,18.08 15.98,36.83 12.64,59.19 -0.48,3.21 -1.44,5.91 -1.71,8.93 -0.5,5.83 -5.68,20.38 -7.54,25.86 -1.86,5.48 -5.1,12.11 -7.47,17.64 -0.87,2.02 -2.17,4.05 -2.58,5.85l-7.8 14.03c-0.58,0.95 -0.82,1.28 -1.4,2.3 -0.84,1.48 -0.92,1.16 -1.25,2.95 -0.51,0.16 -0.01,-0.64 -1.34,1.43 -7.73,11.98 -11.04,17.21 -19.85,29.62l-23.48 29.75c1.85,-0.48 12.71,-11.9 13.85,-13.29l19.01 -22.11c3.48,-4.62 14.56,-19.18 17.03,-24.09l5.03 -7.96c1.11,-1.82 4.09,-6.76 4.42,-8.56 2.36,-1.55 11.52,-22.38 12.69,-25.07 3.42,-7.86 7.16,-20.19 9.23,-28.83 0.41,-1.68 0.67,-2.01 1.02,-4.07 3.29,-19.19 5.02,-30.65 -4.35,-48.9 -1.42,-2.77 -6.87,-11.49 -9.03,-12.89zm-154.92 128.05c0.26,1.08 6.71,12.15 8.76,13.82 0.46,1.68 3.35,5.52 4.68,7.24l19.47 24.42c5.72,5.96 11.59,13.06 18.06,19.35 1.2,1.17 1.92,2.42 3.68,2.88 -4.06,-5.87 -15.85,-19.19 -21.67,-27.36 -1.8,-2.53 -3.37,-4.42 -5.13,-7 -5.01,-7.36 -10.18,-14.24 -14.82,-22.29l-9.18 -15.2c-0.68,-2.29 -2.82,-5.83 -4.01,-8.14 -0.76,-1.48 -1.35,-2.5 -2.06,-3.99 -0.81,-1.7 -0.93,-2.59 -1.95,-3.99 -0.37,-2 -2.16,-5.22 -2.9,-6.97l-2.01 -4.96c-0.16,-0.41 -0.19,-0.54 -0.4,-0.99 -0.43,-0.9 -0.13,-0.38 -0.5,-0.9 -1.04,-4.33 -4,-11.29 -5.7,-17.96 -2.01,-7.86 -2.74,-13.42 -4.28,-19.8 0,-3.49 -0.96,-6.5 -0.97,-10.12 -0.01,-3.85 0.02,-7.71 0.02,-11.57 0.43,-4.88 2.18,-12.93 3.8,-16.66 3.68,-13.48 16.42,-29.73 28.59,-38.04 1.82,-1.24 1.98,-1.22 2.3,-2.38 -2.6,1.33 -4.86,2.3 -7.46,3.82 -7.9,4.65 -18.47,14.86 -23.82,22.51 -3.71,5.32 -10.87,17.74 -11.02,23.78 -0.36,0.62 -0.11,0.03 -0.45,1.02 -0.16,0.47 -0.33,1.16 -0.4,1.48 -0.27,1.21 -0.48,2.01 -0.57,3.06 0,2.37 -0.23,3.07 -0.42,4.75l1.37 15.1c0.42,4.95 3.43,17.45 4.85,22.49l7.51 20.27c0.67,3.03 3.38,7.67 4.74,10.69 0.78,1.72 0.62,2.52 2.21,3.68 -0.12,1.68 1.06,3.14 1.91,4.77l7.77 13.2zm55.13 105.94c3.48,0 29.17,0.37 30.18,-0.23 0.94,-0.56 1.25,-3.63 1.7,-5.72l4.24 -18 -41.82 0c1.91,7.94 3.79,15.99 5.7,23.95z"/>
 </g>
</svg>
