<?xml version="1.0" encoding="UTF-8"?>
<!DOCTYPE svg PUBLIC "-//W3C//DTD SVG 1.1//EN" "http://www.w3.org/Graphics/SVG/1.1/DTD/svg11.dtd">
<!-- Creator: CorelDRAW 2019 -->
<svg xmlns="http://www.w3.org/2000/svg" xml:space="preserve" width="84.6667mm" height="82.5778mm" version="1.1" style="shape-rendering:geometricPrecision; text-rendering:geometricPrecision; image-rendering:optimizeQuality; fill-rule:evenodd; clip-rule:evenodd"
viewBox="0 0 358.33 349.49"
 xmlns:xlink="http://www.w3.org/1999/xlink"
 xmlns:xodm="http://www.corel.com/coreldraw/odm/2003">
 <defs>
  <style type="text/css">
   <![CDATA[
    .fil0 {fill:#1B1F23}
   ]]>
  </style>
 </defs>
 <g id="Слой_x0020_1">
  <metadata id="CorelCorpID_0Corel-Layer"/>
  <path class="fil0" d="M179.16 0c-98.99,0 -179.16,80.18 -179.16,179.16 0,79.28 51.29,146.24 122.5,169.98 8.96,1.57 12.32,-3.81 12.32,-8.51 0,-4.26 -0.22,-18.36 -0.22,-33.37 -45.02,8.29 -56.66,-10.97 -60.24,-21.05 -2.02,-5.15 -10.75,-21.05 -18.36,-25.31 -6.27,-3.36 -15.23,-11.65 -0.22,-11.87 14.11,-0.22 24.19,12.99 27.55,18.36 16.12,27.1 41.88,19.48 52.18,14.78 1.57,-11.65 6.27,-19.48 11.42,-23.96 -39.86,-4.48 -81.52,-19.93 -81.52,-88.46 0,-19.48 6.94,-35.61 18.36,-48.15 -1.79,-4.48 -8.06,-22.84 1.79,-47.48 0,0 15,-4.7 49.27,18.36 14.33,-4.03 29.56,-6.05 44.79,-6.05 15.23,0 30.46,2.02 44.79,6.05 34.27,-23.29 49.27,-18.36 49.27,-18.36 9.85,24.63 3.58,43 1.79,47.48 11.42,12.54 18.36,28.44 18.36,48.15 0,68.75 -41.88,83.98 -81.74,88.46 6.49,5.6 12.09,16.35 12.09,33.15 0,23.96 -0.22,43.22 -0.22,49.27 0,4.7 3.36,10.3 12.32,8.51 70.77,-23.74 122.06,-90.93 122.06,-169.98 0,-98.99 -80.18,-179.16 -179.16,-179.16z"/>
 </g>
</svg>
