<?xml version="1.0" encoding="UTF-8"?>
<!DOCTYPE svg PUBLIC "-//W3C//DTD SVG 1.1//EN" "http://www.w3.org/Graphics/SVG/1.1/DTD/svg11.dtd">
<!-- Creator: CorelDRAW 2019 -->
<svg xmlns="http://www.w3.org/2000/svg" xml:space="preserve" width="84.6666mm" height="84.6556mm" version="1.1" style="shape-rendering:geometricPrecision; text-rendering:geometricPrecision; image-rendering:optimizeQuality; fill-rule:evenodd; clip-rule:evenodd"
viewBox="0 0 357.37 357.32"
 xmlns:xlink="http://www.w3.org/1999/xlink"
 xmlns:xodm="http://www.corel.com/coreldraw/odm/2003">
 <defs>
  <style type="text/css">
   <![CDATA[
    .fil0 {fill:#F05133}
   ]]>
  </style>
 </defs>
 <g id="Слой_x0020_1">
  <metadata id="CorelCorpID_0Corel-Layer"/>
  <path class="fil0" d="M129.7 39.09l40.97 41.16c2.57,-0.53 5.44,-1.38 8.75,-1.38 10.84,0 20.72,6.95 24.56,15.22 3.82,8.23 3.07,13.32 1.22,21.25l39.69 39.5c2.9,-0.74 5.42,-1.56 8.93,-1.56 14.9,0 27.26,12.48 27.26,26.15 0,4.92 -0.43,8.46 -2.45,12.65 -8.15,16.95 -30.07,21.54 -44.42,7.33 -5.62,-5.56 -9,-14.81 -7.06,-24.19 0.3,-1.44 1.26,-3.94 1.26,-5 0,-0.01 -34.87,-35.52 -36.83,-36.83l0 97.24c2.2,1.16 4.01,2.1 5.81,3.77 6.46,6.01 9.3,11.82 9.3,21.64 0,17.16 -18.97,32.37 -38.69,23.59 -14.68,-6.54 -21.04,-25.87 -10.66,-40.53 2.39,-3.38 7.58,-8.23 11.79,-9.21l0 -98.71c-3.93,-0.33 -9.58,-6.3 -11.79,-9.21 -4.91,-6.48 -6.48,-15.63 -3.82,-24.08 0.39,-1.23 0.61,-1.31 0.87,-2.44l-40.79 -40.61c-1.31,1.91 -5.36,5.54 -7.18,7.36l-99.45 99.44c-1.03,1.02 -2.53,2.83 -3.3,4.07 -5.9,9.43 -4.54,21.48 3.3,29.28l144.2 144.19c7.56,7.56 15.74,18.14 26.43,18.14 7.69,0 13.04,-1.76 18.15,-6.9l154.7 -154.7c9.26,-9.21 9.26,-24.13 0,-33.34l-155.25 -155.25c-9.21,-9.31 -23.86,-9.52 -33.16,-0.56l-32.31 32.51z"/>
 </g>
</svg>
