<?xml version="1.0" encoding="UTF-8"?>
<!DOCTYPE svg PUBLIC "-//W3C//DTD SVG 1.1//EN" "http://www.w3.org/Graphics/SVG/1.1/DTD/svg11.dtd">
<!-- Creator: CorelDRAW 2019 -->
<svg xmlns="http://www.w3.org/2000/svg" xml:space="preserve" width="84.6666mm" height="84.6556mm" version="1.1" style="shape-rendering:geometricPrecision; text-rendering:geometricPrecision; image-rendering:optimizeQuality; fill-rule:evenodd; clip-rule:evenodd"
viewBox="0 0 306.51 306.47"
 xmlns:xlink="http://www.w3.org/1999/xlink"
 xmlns:xodm="http://www.corel.com/coreldraw/odm/2003">
 <defs>
  <style type="text/css">
   <![CDATA[
    .fil0 {fill:#0B1215}
   ]]>
  </style>
 </defs>
 <g id="Слой_x0020_1">
  <metadata id="CorelCorpID_0Corel-Layer"/>
  <path class="fil0" d="M111.24 33.53l35.14 35.3c2.21,-0.45 4.67,-1.19 7.5,-1.19 9.29,0 17.77,5.96 21.07,13.05 3.28,7.06 2.63,11.43 1.05,18.22l34.04 33.88c2.49,-0.64 4.65,-1.34 7.66,-1.34 12.78,0 23.38,10.71 23.38,22.43 0,4.22 -0.37,7.25 -2.1,10.85 -6.99,14.54 -25.79,18.47 -38.1,6.29 -4.82,-4.77 -7.72,-12.7 -6.05,-20.75 0.26,-1.24 1.08,-3.38 1.08,-4.29 0,-0.01 -29.91,-30.47 -31.59,-31.59l0 83.4c1.88,1 3.44,1.8 4.98,3.23 5.54,5.16 7.97,10.14 7.97,18.56 0,14.72 -16.27,27.76 -33.18,20.23 -12.59,-5.61 -18.05,-22.19 -9.15,-34.76 2.05,-2.9 6.5,-7.06 10.11,-7.9l0 -84.66c-3.37,-0.28 -8.22,-5.4 -10.11,-7.9 -4.21,-5.55 -5.56,-13.4 -3.28,-20.65 0.33,-1.06 0.52,-1.12 0.75,-2.09l-34.99 -34.83c-1.12,1.64 -4.59,4.75 -6.16,6.32l-85.3 85.29c-0.88,0.88 -2.17,2.43 -2.83,3.49 -5.06,8.09 -3.89,18.42 2.83,25.11l123.68 123.67c6.48,6.48 13.5,15.56 22.67,15.56 6.6,0 11.18,-1.51 15.56,-5.92l132.68 -132.68c7.94,-7.9 7.94,-20.7 0,-28.6l-133.15 -133.15c-7.9,-7.99 -20.46,-8.16 -28.44,-0.48l-27.71 27.88z"/>
 </g>
</svg>
