<?xml version="1.0" encoding="UTF-8"?>
<!DOCTYPE svg PUBLIC "-//W3C//DTD SVG 1.1//EN" "http://www.w3.org/Graphics/SVG/1.1/DTD/svg11.dtd">
<!-- Creator: CorelDRAW 2019 -->
<svg xmlns="http://www.w3.org/2000/svg" xml:space="preserve" width="80.0746mm" height="84.8931mm" version="1.1" style="shape-rendering:geometricPrecision; text-rendering:geometricPrecision; image-rendering:optimizeQuality; fill-rule:evenodd; clip-rule:evenodd"
viewBox="0 0 274.14 290.63"
 xmlns:xlink="http://www.w3.org/1999/xlink"
 xmlns:xodm="http://www.corel.com/coreldraw/odm/2003">
 <defs>
  <style type="text/css">
   <![CDATA[
    .str0 {stroke:#2B2A29;stroke-width:0.68;stroke-miterlimit:22.9256}
    .fil0 {fill:#0B1215}
    .fil1 {fill:snow}
   ]]>
  </style>
 </defs>
 <g id="Слой_x0020_1">
  <metadata id="CorelCorpID_0Corel-Layer"/>
  <g id="_842467672">
   <polygon class="fil0 str0" points="137.07,0.39 205.43,36.62 273.8,72.85 273.8,145.32 273.8,217.78 205.43,254.01 137.07,290.25 68.71,254.01 0.34,217.78 0.34,145.32 0.34,72.85 68.71,36.62 "/>
   <path class="fil1" d="M110.61 201.22c1.08,-1.79 2.39,-6.55 2.14,-8.52l-3.89 -0.6c-0.13,-0.03 -0.35,-0.07 -0.51,-0.15 1.69,-4.09 4.47,-10.96 5.18,-15.58 0.97,-6.32 -2.22,-12.17 -5.77,-14.53 -8.79,-5.82 -22.45,-4.87 -30.63,4.07 -5.85,6.38 -11.22,22.48 -3.94,31.13 3.32,3.95 9.91,4.32 16.61,4.31 6.19,-0.01 14.95,0.51 20.81,-0.13zm-12.91 -9.29c1.47,-2.77 4.9,-14.57 4.72,-17.56 -0.45,-7.58 -9.03,-8.28 -14.61,-5.07 -5.75,3.3 -11.19,21.01 -1.59,22.76 2.69,0.49 8.78,0.31 11.47,-0.13z"/>
   <path class="fil1" d="M181.56 201.63c0.94,-1.95 2.17,-6.5 1.43,-8.67 -10.57,-1.27 -21.84,2.79 -20.53,-4.92l22.89 -0.22c2.34,-8.8 4.38,-18.26 -6.5,-20.47 -8.39,-1.71 -17.95,-0.16 -22.82,7.59 -3.43,5.46 -7.08,18.47 -2,23.24 4.7,4.41 19.2,4.44 27.53,3.45zm-17.58 -21.42c2.03,0.12 3.99,0.08 6.03,0.09 2.1,0.01 4.53,0.27 6.31,-0.49 0.36,-7.21 -10.95,-5.29 -12.34,0.4z"/>
   <path class="fil1" d="M144.73 201.22l7.95 -33.72 -10.03 0.12c-0.4,3.36 -1.89,8.77 -2.71,12.34 -0.51,2.23 -2.25,10.99 -3.34,12.83 -3.43,0.12 -7.37,0.69 -9.07,-1.49 -2.28,-2.99 2.91,-18.85 3.2,-23.86 -11.18,0 -9.69,-1.34 -11.09,6.27 -0.43,2.34 -1.03,4.52 -1.65,7.03 -2.32,9.35 -4.68,20.47 10.08,20.63 4.78,0.05 12.17,0.36 16.67,-0.15z"/>
   <path class="fil1" d="M226.48 182.89l-1.07 -5.04 -11.39 0.07c0.69,3.52 2.24,7.78 3.46,11.65 2.03,6.45 -0.34,8.13 -0.44,11.84 11.13,0.13 10.53,1.62 12.14,-6.02 1.89,-6.74 24.32,-29.17 24.45,-32.97 -12.58,-0.9 -11.77,-1.17 -21.84,13.52 -1.65,2.41 -3.03,5.09 -5.31,6.95z"/>
   <path class="fil1" d="M201.75 80.49c-2,1.54 -3.95,5.22 -9.17,6.05 -13.73,2.81 -29.21,-2.24 -35.49,-15.93 -3.6,-6.65 -0.84,-13.08 0.22,-19.07 -3.92,1.4 -6.53,7.44 -7.52,11.29 -6.15,32.99 49.88,41.48 51.97,17.65z"/>
   <path class="fil1" d="M187.48 201.31c12.09,0.48 9.31,1.54 12.44,-12.32 0.84,-3.73 1.67,-9.57 3.11,-12.62l21.43 -0.42c0.55,-7.2 -3.64,-8.53 -10.09,-8.52 -5.55,0.01 -14.33,-0.49 -19.45,0.24 -1.09,2.27 -7.6,31.89 -7.44,33.64z"/>
   <path class="fil1" d="M42.73 206.26c-0.88,2.31 -2.16,6.09 -1.82,8.55 12.35,0.69 16.57,-0.04 19.82,-11.1 0.9,-3.05 5.8,-23.8 5.53,-25.88l-9.63 -0.19c-1.88,4.98 -4.2,19.47 -6.71,24.9 -2,4.34 -2.43,3.11 -7.19,3.72z"/>
   <path class="fil1" d="M57.26 176.05l9.5 -0.15c1.48,-2.13 1.94,-5.72 2.16,-8.29 -10.33,-0.2 -11.47,-2.09 -11.66,8.44z"/>
   <path class="fil1" d="M205.2 103.07c-3.27,2.47 -6.43,8.35 -14.95,9.69 -22.38,4.51 -47.6,-3.58 -57.83,-25.51 -5.86,-10.65 -1.38,-20.95 0.35,-30.54 -6.39,2.24 -10.65,11.92 -12.25,18.09 -10.64,56.13 81.39,65.16 84.68,28.27z"/>
   <path class="fil1" d="M201.38 129.89c-4.43,3.36 -8.72,11.36 -20.27,13.17 -30.35,6.13 -64.55,-4.87 -78.43,-34.69 -7.94,-14.48 -1.87,-28.5 0.48,-41.53 -8.67,3.05 -14.44,16.22 -16.61,24.6 -14.43,76.34 110.39,88.63 114.84,38.45z"/>
  </g>
 </g>
</svg>
