<?xml version="1.0" encoding="UTF-8"?>
<!DOCTYPE svg PUBLIC "-//W3C//DTD SVG 1.1//EN" "http://www.w3.org/Graphics/SVG/1.1/DTD/svg11.dtd">
<!-- Creator: CorelDRAW 2019 -->
<svg xmlns="http://www.w3.org/2000/svg" xml:space="preserve" width="80.0746mm" height="84.8931mm" version="1.1" style="shape-rendering:geometricPrecision; text-rendering:geometricPrecision; image-rendering:optimizeQuality; fill-rule:evenodd; clip-rule:evenodd"
viewBox="0 0 321.1 340.42"
 xmlns:xlink="http://www.w3.org/1999/xlink"
 xmlns:xodm="http://www.corel.com/coreldraw/odm/2003">
 <defs>
  <style type="text/css">
   <![CDATA[
    .str0 {stroke:#2B2A29;stroke-width:0.8;stroke-miterlimit:22.9256}
    .fil1 {fill:#FEFEFE}
    .fil0 {fill:#162C45}
   ]]>
  </style>
 </defs>
 <g id="Слой_x0020_1">
  <metadata id="CorelCorpID_0Corel-Layer"/>
  <g id="_834328128">
   <polygon class="fil0 str0" points="160.55,0.45 240.62,42.89 320.7,85.33 320.7,170.21 320.7,255.09 240.62,297.53 160.55,339.97 80.47,297.53 0.4,255.09 0.4,170.21 0.4,85.33 80.47,42.89 "/>
   <path class="fil1" d="M129.56 235.7c1.26,-2.09 2.8,-7.68 2.51,-9.98l-4.56 -0.7c-0.15,-0.04 -0.4,-0.09 -0.59,-0.17 1.98,-4.8 5.24,-12.84 6.07,-18.25 1.14,-7.4 -2.6,-14.26 -6.76,-17.02 -10.3,-6.82 -26.29,-5.7 -35.88,4.76 -6.85,7.48 -13.15,26.33 -4.62,36.47 3.89,4.63 11.61,5.06 19.45,5.05 7.25,-0.01 17.51,0.6 24.38,-0.16zm-15.12 -10.88c1.72,-3.25 5.74,-17.06 5.53,-20.57 -0.53,-8.88 -10.58,-9.7 -17.11,-5.94 -6.73,3.87 -13.11,24.61 -1.86,26.66 3.15,0.57 10.28,0.37 13.44,-0.15z"/>
   <path class="fil1" d="M212.66 236.17c1.1,-2.29 2.54,-7.61 1.67,-10.15 -12.38,-1.48 -25.58,3.27 -24.05,-5.76l26.81 -0.26c2.74,-10.31 5.13,-21.38 -7.61,-23.98 -9.83,-2 -21.02,-0.19 -26.73,8.89 -4.02,6.39 -8.29,21.63 -2.34,27.22 5.5,5.17 22.49,5.2 32.25,4.04zm-20.59 -25.09c2.38,0.14 4.68,0.1 7.07,0.11 2.46,0.01 5.31,0.32 7.39,-0.58 0.42,-8.44 -12.82,-6.19 -14.45,0.47z"/>
   <path class="fil1" d="M169.52 235.7l9.31 -39.5 -11.75 0.14c-0.46,3.94 -2.22,10.27 -3.17,14.46 -0.6,2.62 -2.64,12.87 -3.91,15.02 -4.01,0.14 -8.64,0.81 -10.62,-1.75 -2.67,-3.5 3.41,-22.08 3.75,-27.95 -13.09,0 -11.35,-1.57 -12.99,7.35 -0.51,2.74 -1.21,5.3 -1.93,8.23 -2.72,10.95 -5.49,23.98 11.81,24.16 5.6,0.06 14.25,0.43 19.53,-0.18z"/>
   <path class="fil1" d="M265.28 214.22l-1.25 -5.9 -13.34 0.08c0.81,4.12 2.62,9.12 4.05,13.65 2.38,7.56 -0.4,9.52 -0.52,13.87 13.04,0.15 12.34,1.9 14.22,-7.05 2.21,-7.89 28.49,-34.17 28.64,-38.62 -14.74,-1.05 -13.79,-1.37 -25.58,15.84 -1.93,2.82 -3.55,5.97 -6.22,8.14z"/>
   <path class="fil1" d="M236.31 94.27c-2.35,1.81 -4.62,6.11 -10.75,7.08 -16.09,3.3 -34.21,-2.62 -41.57,-18.65 -4.21,-7.79 -0.99,-15.32 0.25,-22.33 -4.6,1.64 -7.65,8.72 -8.81,13.23 -7.2,38.64 58.43,48.59 60.87,20.67z"/>
   <path class="fil1" d="M219.6 235.79c14.16,0.56 10.91,1.81 14.57,-14.43 0.99,-4.37 1.96,-11.21 3.64,-14.78l25.1 -0.49c0.64,-8.44 -4.26,-10 -11.82,-9.98 -6.5,0.01 -16.78,-0.57 -22.78,0.28 -1.28,2.65 -8.9,37.36 -8.72,39.4z"/>
   <path class="fil1" d="M50.04 241.59c-1.02,2.7 -2.53,7.14 -2.14,10.02 14.46,0.81 19.41,-0.05 23.21,-13 1.05,-3.57 6.79,-27.88 6.48,-30.32l-11.29 -0.22c-2.2,5.83 -4.92,22.8 -7.85,29.17 -2.35,5.09 -2.85,3.65 -8.42,4.35z"/>
   <path class="fil1" d="M67.07 206.21l11.12 -0.18c1.74,-2.5 2.27,-6.7 2.53,-9.71 -12.1,-0.23 -13.44,-2.45 -13.66,9.89z"/>
   <path class="fil1" d="M240.35 120.73c-3.82,2.9 -7.53,9.78 -17.51,11.34 -26.21,5.28 -55.75,-4.19 -67.74,-29.87 -6.86,-12.47 -1.61,-24.54 0.41,-35.77 -7.49,2.62 -12.47,13.96 -14.35,21.19 -12.46,65.74 95.34,76.33 99.19,33.11z"/>
   <path class="fil1" d="M235.87 152.14c-5.19,3.94 -10.22,13.31 -23.75,15.43 -35.55,7.18 -75.61,-5.7 -91.87,-40.64 -9.31,-16.96 -2.19,-33.38 0.56,-48.65 -10.16,3.57 -16.91,18.99 -19.46,28.82 -16.9,89.42 129.3,103.82 134.51,45.03z"/>
  </g>
 </g>
</svg>
